<mxfile host="app.diagrams.net" agent="Mozilla/5.0 (X11; Linux x86_64) AppleWebKit/537.36 (KHTML, like Gecko) Chrome/129.0.0.0 Safari/537.36" version="24.7.16">
  <diagram id="C5RBs43oDa-KdzZeNtuy" name="Page-1">
    <mxGraphModel dx="1434" dy="788" grid="1" gridSize="10" guides="1" tooltips="1" connect="1" arrows="1" fold="1" page="1" pageScale="1" pageWidth="827" pageHeight="1169" math="0" shadow="0">
      <root>
        <mxCell id="WIyWlLk6GJQsqaUBKTNV-0" />
        <mxCell id="WIyWlLk6GJQsqaUBKTNV-1" parent="WIyWlLk6GJQsqaUBKTNV-0" />
        <mxCell id="kXXxRyWmdwGzVnWKBGMw-0" style="edgeStyle=orthogonalEdgeStyle;rounded=0;orthogonalLoop=1;jettySize=auto;html=1;entryX=0;entryY=0.5;entryDx=0;entryDy=0;endArrow=none;endFill=0;" edge="1" parent="WIyWlLk6GJQsqaUBKTNV-1" source="kXXxRyWmdwGzVnWKBGMw-4" target="kXXxRyWmdwGzVnWKBGMw-18">
          <mxGeometry relative="1" as="geometry">
            <Array as="points">
              <mxPoint x="380" y="300" />
              <mxPoint x="380" y="410" />
            </Array>
          </mxGeometry>
        </mxCell>
        <mxCell id="kXXxRyWmdwGzVnWKBGMw-1" style="edgeStyle=orthogonalEdgeStyle;rounded=0;orthogonalLoop=1;jettySize=auto;html=1;entryX=1;entryY=0.5;entryDx=0;entryDy=0;endArrow=none;endFill=0;" edge="1" parent="WIyWlLk6GJQsqaUBKTNV-1" source="kXXxRyWmdwGzVnWKBGMw-4" target="kXXxRyWmdwGzVnWKBGMw-18">
          <mxGeometry relative="1" as="geometry">
            <mxPoint x="610" y="430" as="targetPoint" />
            <Array as="points">
              <mxPoint x="600" y="300" />
              <mxPoint x="600" y="301" />
              <mxPoint x="610" y="301" />
              <mxPoint x="610" y="410" />
            </Array>
          </mxGeometry>
        </mxCell>
        <mxCell id="kXXxRyWmdwGzVnWKBGMw-2" style="edgeStyle=orthogonalEdgeStyle;rounded=0;orthogonalLoop=1;jettySize=auto;html=1;entryX=0;entryY=0.5;entryDx=0;entryDy=0;endArrow=none;endFill=0;" edge="1" parent="WIyWlLk6GJQsqaUBKTNV-1" source="kXXxRyWmdwGzVnWKBGMw-4" target="kXXxRyWmdwGzVnWKBGMw-34">
          <mxGeometry relative="1" as="geometry">
            <Array as="points">
              <mxPoint x="860" y="290" />
              <mxPoint x="860" y="410" />
            </Array>
          </mxGeometry>
        </mxCell>
        <mxCell id="kXXxRyWmdwGzVnWKBGMw-3" style="edgeStyle=orthogonalEdgeStyle;rounded=0;orthogonalLoop=1;jettySize=auto;html=1;entryX=0.5;entryY=0;entryDx=0;entryDy=0;" edge="1" parent="WIyWlLk6GJQsqaUBKTNV-1" source="kXXxRyWmdwGzVnWKBGMw-4" target="kXXxRyWmdwGzVnWKBGMw-49">
          <mxGeometry relative="1" as="geometry" />
        </mxCell>
        <mxCell id="kXXxRyWmdwGzVnWKBGMw-4" value="Employee" style="rounded=0;whiteSpace=wrap;html=1;fillColor=#f8cecc;strokeColor=#b85450;" vertex="1" parent="WIyWlLk6GJQsqaUBKTNV-1">
          <mxGeometry x="424" y="260" width="120" height="60" as="geometry" />
        </mxCell>
        <mxCell id="kXXxRyWmdwGzVnWKBGMw-5" value="" style="edgeStyle=orthogonalEdgeStyle;rounded=0;orthogonalLoop=1;jettySize=auto;html=1;endArrow=none;endFill=0;" edge="1" parent="WIyWlLk6GJQsqaUBKTNV-1" source="kXXxRyWmdwGzVnWKBGMw-6" target="kXXxRyWmdwGzVnWKBGMw-4">
          <mxGeometry relative="1" as="geometry" />
        </mxCell>
        <mxCell id="kXXxRyWmdwGzVnWKBGMw-6" value="ID&lt;div&gt;------&lt;/div&gt;" style="ellipse;whiteSpace=wrap;html=1;fillColor=#a0522d;fontColor=#ffffff;strokeColor=#6D1F00;" vertex="1" parent="WIyWlLk6GJQsqaUBKTNV-1">
          <mxGeometry x="480" y="10" width="110" height="40" as="geometry" />
        </mxCell>
        <mxCell id="kXXxRyWmdwGzVnWKBGMw-7" style="edgeStyle=orthogonalEdgeStyle;rounded=0;orthogonalLoop=1;jettySize=auto;html=1;endArrow=none;endFill=0;" edge="1" parent="WIyWlLk6GJQsqaUBKTNV-1" source="kXXxRyWmdwGzVnWKBGMw-8" target="kXXxRyWmdwGzVnWKBGMw-4">
          <mxGeometry relative="1" as="geometry">
            <Array as="points">
              <mxPoint x="560" y="65" />
              <mxPoint x="560" y="240" />
              <mxPoint x="510" y="240" />
            </Array>
          </mxGeometry>
        </mxCell>
        <mxCell id="kXXxRyWmdwGzVnWKBGMw-8" value="Name" style="ellipse;whiteSpace=wrap;html=1;fillColor=#a0522d;fontColor=#ffffff;strokeColor=#6D1F00;" vertex="1" parent="WIyWlLk6GJQsqaUBKTNV-1">
          <mxGeometry x="610" y="40" width="110" height="50" as="geometry" />
        </mxCell>
        <mxCell id="kXXxRyWmdwGzVnWKBGMw-9" value="" style="edgeStyle=orthogonalEdgeStyle;rounded=0;orthogonalLoop=1;jettySize=auto;html=1;entryX=0.25;entryY=0;entryDx=0;entryDy=0;endArrow=none;endFill=0;" edge="1" parent="WIyWlLk6GJQsqaUBKTNV-1" source="kXXxRyWmdwGzVnWKBGMw-10" target="kXXxRyWmdwGzVnWKBGMw-4">
          <mxGeometry relative="1" as="geometry" />
        </mxCell>
        <mxCell id="kXXxRyWmdwGzVnWKBGMw-10" value="Position" style="ellipse;whiteSpace=wrap;html=1;fillColor=#a0522d;fontColor=#ffffff;strokeColor=#6D1F00;" vertex="1" parent="WIyWlLk6GJQsqaUBKTNV-1">
          <mxGeometry x="370" y="10" width="100" height="50" as="geometry" />
        </mxCell>
        <mxCell id="kXXxRyWmdwGzVnWKBGMw-11" style="edgeStyle=orthogonalEdgeStyle;rounded=0;orthogonalLoop=1;jettySize=auto;html=1;entryX=0.5;entryY=1;entryDx=0;entryDy=0;endArrow=none;endFill=0;" edge="1" parent="WIyWlLk6GJQsqaUBKTNV-1" source="kXXxRyWmdwGzVnWKBGMw-13" target="kXXxRyWmdwGzVnWKBGMw-18">
          <mxGeometry relative="1" as="geometry">
            <Array as="points">
              <mxPoint x="287" y="460" />
              <mxPoint x="287" y="470" />
              <mxPoint x="484" y="470" />
            </Array>
          </mxGeometry>
        </mxCell>
        <mxCell id="kXXxRyWmdwGzVnWKBGMw-12" style="edgeStyle=orthogonalEdgeStyle;rounded=0;orthogonalLoop=1;jettySize=auto;html=1;entryX=0.5;entryY=1;entryDx=0;entryDy=0;endArrow=none;endFill=0;" edge="1" parent="WIyWlLk6GJQsqaUBKTNV-1" source="kXXxRyWmdwGzVnWKBGMw-13" target="kXXxRyWmdwGzVnWKBGMw-17">
          <mxGeometry relative="1" as="geometry">
            <Array as="points">
              <mxPoint x="230" y="440" />
            </Array>
          </mxGeometry>
        </mxCell>
        <mxCell id="kXXxRyWmdwGzVnWKBGMw-13" value="Department" style="rounded=0;whiteSpace=wrap;html=1;fillColor=#f8cecc;strokeColor=#b85450;" vertex="1" parent="WIyWlLk6GJQsqaUBKTNV-1">
          <mxGeometry x="40" y="410" width="120" height="60" as="geometry" />
        </mxCell>
        <mxCell id="kXXxRyWmdwGzVnWKBGMw-14" value="" style="edgeStyle=orthogonalEdgeStyle;rounded=0;orthogonalLoop=1;jettySize=auto;html=1;endArrow=none;endFill=0;" edge="1" parent="WIyWlLk6GJQsqaUBKTNV-1" source="kXXxRyWmdwGzVnWKBGMw-15" target="kXXxRyWmdwGzVnWKBGMw-13">
          <mxGeometry relative="1" as="geometry" />
        </mxCell>
        <mxCell id="kXXxRyWmdwGzVnWKBGMw-15" value="Name&lt;div&gt;---------&lt;/div&gt;" style="ellipse;whiteSpace=wrap;html=1;fillColor=#a0522d;fontColor=#ffffff;strokeColor=#6D1F00;" vertex="1" parent="WIyWlLk6GJQsqaUBKTNV-1">
          <mxGeometry x="120" y="595" width="110" height="50" as="geometry" />
        </mxCell>
        <mxCell id="kXXxRyWmdwGzVnWKBGMw-16" style="edgeStyle=orthogonalEdgeStyle;rounded=0;orthogonalLoop=1;jettySize=auto;html=1;endArrow=none;endFill=0;" edge="1" parent="WIyWlLk6GJQsqaUBKTNV-1" source="kXXxRyWmdwGzVnWKBGMw-17" target="kXXxRyWmdwGzVnWKBGMw-4">
          <mxGeometry relative="1" as="geometry">
            <Array as="points">
              <mxPoint x="230" y="230" />
              <mxPoint x="380" y="230" />
              <mxPoint x="380" y="270" />
            </Array>
          </mxGeometry>
        </mxCell>
        <mxCell id="kXXxRyWmdwGzVnWKBGMw-17" value="Assigned" style="rhombus;whiteSpace=wrap;html=1;fillColor=#d5e8d4;strokeColor=#82b366;" vertex="1" parent="WIyWlLk6GJQsqaUBKTNV-1">
          <mxGeometry x="160" y="260" width="140" height="80" as="geometry" />
        </mxCell>
        <mxCell id="kXXxRyWmdwGzVnWKBGMw-18" value="Manager" style="rhombus;whiteSpace=wrap;html=1;fillColor=#d5e8d4;strokeColor=#82b366;" vertex="1" parent="WIyWlLk6GJQsqaUBKTNV-1">
          <mxGeometry x="424" y="370" width="120" height="80" as="geometry" />
        </mxCell>
        <mxCell id="kXXxRyWmdwGzVnWKBGMw-19" value="Meeting Room" style="rounded=0;whiteSpace=wrap;html=1;fillColor=#f8cecc;strokeColor=#b85450;" vertex="1" parent="WIyWlLk6GJQsqaUBKTNV-1">
          <mxGeometry x="715" y="700" width="120" height="60" as="geometry" />
        </mxCell>
        <mxCell id="kXXxRyWmdwGzVnWKBGMw-20" style="edgeStyle=orthogonalEdgeStyle;rounded=0;orthogonalLoop=1;jettySize=auto;html=1;entryX=0.75;entryY=1;entryDx=0;entryDy=0;exitX=0.5;exitY=0;exitDx=0;exitDy=0;endArrow=none;endFill=0;" edge="1" parent="WIyWlLk6GJQsqaUBKTNV-1" source="kXXxRyWmdwGzVnWKBGMw-21" target="kXXxRyWmdwGzVnWKBGMw-19">
          <mxGeometry relative="1" as="geometry" />
        </mxCell>
        <mxCell id="kXXxRyWmdwGzVnWKBGMw-21" value="Room Number&lt;div&gt;---------------------&lt;/div&gt;" style="ellipse;whiteSpace=wrap;html=1;fillColor=#a0522d;fontColor=#ffffff;strokeColor=#6D1F00;" vertex="1" parent="WIyWlLk6GJQsqaUBKTNV-1">
          <mxGeometry x="835" y="920" width="110" height="50" as="geometry" />
        </mxCell>
        <mxCell id="kXXxRyWmdwGzVnWKBGMw-22" style="edgeStyle=orthogonalEdgeStyle;rounded=0;orthogonalLoop=1;jettySize=auto;html=1;endArrow=none;endFill=0;" edge="1" parent="WIyWlLk6GJQsqaUBKTNV-1" source="kXXxRyWmdwGzVnWKBGMw-23" target="kXXxRyWmdwGzVnWKBGMw-19">
          <mxGeometry relative="1" as="geometry" />
        </mxCell>
        <mxCell id="kXXxRyWmdwGzVnWKBGMw-23" value="Size" style="ellipse;whiteSpace=wrap;html=1;fillColor=#a0522d;fontColor=#ffffff;strokeColor=#6D1F00;" vertex="1" parent="WIyWlLk6GJQsqaUBKTNV-1">
          <mxGeometry x="715" y="930" width="100" height="50" as="geometry" />
        </mxCell>
        <mxCell id="kXXxRyWmdwGzVnWKBGMw-24" style="edgeStyle=orthogonalEdgeStyle;rounded=0;orthogonalLoop=1;jettySize=auto;html=1;entryX=0.25;entryY=1;entryDx=0;entryDy=0;endArrow=none;endFill=0;" edge="1" parent="WIyWlLk6GJQsqaUBKTNV-1" source="kXXxRyWmdwGzVnWKBGMw-25" target="kXXxRyWmdwGzVnWKBGMw-19">
          <mxGeometry relative="1" as="geometry">
            <mxPoint x="570" y="820" as="targetPoint" />
            <Array as="points">
              <mxPoint x="640" y="870" />
              <mxPoint x="745" y="870" />
            </Array>
          </mxGeometry>
        </mxCell>
        <mxCell id="kXXxRyWmdwGzVnWKBGMw-25" value="Maximum Occupancy" style="ellipse;whiteSpace=wrap;html=1;fillColor=#a0522d;fontColor=#ffffff;strokeColor=#6D1F00;" vertex="1" parent="WIyWlLk6GJQsqaUBKTNV-1">
          <mxGeometry x="585" y="930" width="110" height="50" as="geometry" />
        </mxCell>
        <mxCell id="kXXxRyWmdwGzVnWKBGMw-26" style="edgeStyle=orthogonalEdgeStyle;rounded=0;orthogonalLoop=1;jettySize=auto;html=1;entryX=0.5;entryY=0;entryDx=0;entryDy=0;endArrow=none;endFill=0;" edge="1" parent="WIyWlLk6GJQsqaUBKTNV-1" source="kXXxRyWmdwGzVnWKBGMw-27" target="kXXxRyWmdwGzVnWKBGMw-19">
          <mxGeometry relative="1" as="geometry" />
        </mxCell>
        <mxCell id="kXXxRyWmdwGzVnWKBGMw-27" value="Combined" style="rhombus;whiteSpace=wrap;html=1;fillColor=#d5e8d4;strokeColor=#82b366;" vertex="1" parent="WIyWlLk6GJQsqaUBKTNV-1">
          <mxGeometry x="705" y="554" width="140" height="80" as="geometry" />
        </mxCell>
        <mxCell id="kXXxRyWmdwGzVnWKBGMw-28" style="edgeStyle=orthogonalEdgeStyle;rounded=0;orthogonalLoop=1;jettySize=auto;html=1;endArrow=none;endFill=0;" edge="1" parent="WIyWlLk6GJQsqaUBKTNV-1" source="kXXxRyWmdwGzVnWKBGMw-27" target="kXXxRyWmdwGzVnWKBGMw-19">
          <mxGeometry relative="1" as="geometry">
            <Array as="points">
              <mxPoint x="665" y="595" />
              <mxPoint x="665" y="730" />
            </Array>
          </mxGeometry>
        </mxCell>
        <mxCell id="kXXxRyWmdwGzVnWKBGMw-29" style="edgeStyle=orthogonalEdgeStyle;rounded=0;orthogonalLoop=1;jettySize=auto;html=1;entryX=1;entryY=0.5;entryDx=0;entryDy=0;endArrow=none;endFill=0;" edge="1" parent="WIyWlLk6GJQsqaUBKTNV-1" source="kXXxRyWmdwGzVnWKBGMw-30" target="kXXxRyWmdwGzVnWKBGMw-40">
          <mxGeometry relative="1" as="geometry" />
        </mxCell>
        <mxCell id="kXXxRyWmdwGzVnWKBGMw-30" value="Building" style="rounded=0;whiteSpace=wrap;html=1;fillColor=#f8cecc;strokeColor=#b85450;" vertex="1" parent="WIyWlLk6GJQsqaUBKTNV-1">
          <mxGeometry x="1290" y="610" width="120" height="60" as="geometry" />
        </mxCell>
        <mxCell id="kXXxRyWmdwGzVnWKBGMw-31" style="edgeStyle=orthogonalEdgeStyle;rounded=1;orthogonalLoop=1;jettySize=auto;html=1;entryX=1;entryY=0.5;entryDx=0;entryDy=0;exitX=0.5;exitY=1;exitDx=0;exitDy=0;strokeColor=default;curved=0;endArrow=none;endFill=0;" edge="1" parent="WIyWlLk6GJQsqaUBKTNV-1" source="kXXxRyWmdwGzVnWKBGMw-34" target="kXXxRyWmdwGzVnWKBGMw-19">
          <mxGeometry relative="1" as="geometry" />
        </mxCell>
        <mxCell id="kXXxRyWmdwGzVnWKBGMw-32" style="edgeStyle=orthogonalEdgeStyle;rounded=0;orthogonalLoop=1;jettySize=auto;html=1;entryX=0.5;entryY=1;entryDx=0;entryDy=0;endArrow=none;endFill=0;" edge="1" parent="WIyWlLk6GJQsqaUBKTNV-1" source="kXXxRyWmdwGzVnWKBGMw-34" target="kXXxRyWmdwGzVnWKBGMw-36">
          <mxGeometry relative="1" as="geometry">
            <Array as="points">
              <mxPoint x="1015" y="150" />
            </Array>
          </mxGeometry>
        </mxCell>
        <mxCell id="kXXxRyWmdwGzVnWKBGMw-33" style="edgeStyle=orthogonalEdgeStyle;rounded=0;orthogonalLoop=1;jettySize=auto;html=1;endArrow=none;endFill=0;" edge="1" parent="WIyWlLk6GJQsqaUBKTNV-1" source="kXXxRyWmdwGzVnWKBGMw-34" target="kXXxRyWmdwGzVnWKBGMw-37">
          <mxGeometry relative="1" as="geometry">
            <Array as="points">
              <mxPoint x="1015" y="300" />
              <mxPoint x="1305" y="300" />
            </Array>
          </mxGeometry>
        </mxCell>
        <mxCell id="kXXxRyWmdwGzVnWKBGMw-34" value="Reservation" style="rhombus;whiteSpace=wrap;html=1;fillColor=#d5e8d4;strokeColor=#82b366;" vertex="1" parent="WIyWlLk6GJQsqaUBKTNV-1">
          <mxGeometry x="945" y="370" width="140" height="80" as="geometry" />
        </mxCell>
        <mxCell id="kXXxRyWmdwGzVnWKBGMw-35" value="Reservation ID&lt;div&gt;--------------------&lt;/div&gt;" style="ellipse;whiteSpace=wrap;html=1;fillColor=#a0522d;fontColor=#ffffff;strokeColor=#6D1F00;" vertex="1" parent="WIyWlLk6GJQsqaUBKTNV-1">
          <mxGeometry x="870" y="90" width="105" height="50" as="geometry" />
        </mxCell>
        <mxCell id="kXXxRyWmdwGzVnWKBGMw-36" value="Date" style="ellipse;whiteSpace=wrap;html=1;fillColor=#a0522d;fontColor=#ffffff;strokeColor=#6D1F00;" vertex="1" parent="WIyWlLk6GJQsqaUBKTNV-1">
          <mxGeometry x="1130" y="100" width="112" height="50" as="geometry" />
        </mxCell>
        <mxCell id="kXXxRyWmdwGzVnWKBGMw-37" value="Number of people" style="ellipse;whiteSpace=wrap;html=1;fillColor=#a0522d;fontColor=#ffffff;strokeColor=#6D1F00;" vertex="1" parent="WIyWlLk6GJQsqaUBKTNV-1">
          <mxGeometry x="1280" y="200" width="110" height="50" as="geometry" />
        </mxCell>
        <mxCell id="kXXxRyWmdwGzVnWKBGMw-38" style="edgeStyle=orthogonalEdgeStyle;rounded=0;orthogonalLoop=1;jettySize=auto;html=1;entryX=0.575;entryY=0.992;entryDx=0;entryDy=0;entryPerimeter=0;endArrow=none;endFill=0;" edge="1" parent="WIyWlLk6GJQsqaUBKTNV-1" source="kXXxRyWmdwGzVnWKBGMw-34" target="kXXxRyWmdwGzVnWKBGMw-35">
          <mxGeometry relative="1" as="geometry" />
        </mxCell>
        <mxCell id="kXXxRyWmdwGzVnWKBGMw-39" style="edgeStyle=orthogonalEdgeStyle;rounded=0;orthogonalLoop=1;jettySize=auto;html=1;entryX=1;entryY=0.75;entryDx=0;entryDy=0;shape=link;" edge="1" parent="WIyWlLk6GJQsqaUBKTNV-1" source="kXXxRyWmdwGzVnWKBGMw-40" target="kXXxRyWmdwGzVnWKBGMw-19">
          <mxGeometry relative="1" as="geometry" />
        </mxCell>
        <mxCell id="kXXxRyWmdwGzVnWKBGMw-40" value="Distributed" style="rhombus;whiteSpace=wrap;html=1;fillColor=#d5e8d4;strokeColor=#82b366;" vertex="1" parent="WIyWlLk6GJQsqaUBKTNV-1">
          <mxGeometry x="1060" y="770" width="100" height="70" as="geometry" />
        </mxCell>
        <mxCell id="kXXxRyWmdwGzVnWKBGMw-41" value="Parking Space" style="rounded=0;whiteSpace=wrap;html=1;fillColor=#f8cecc;strokeColor=#b85450;" vertex="1" parent="WIyWlLk6GJQsqaUBKTNV-1">
          <mxGeometry x="240" y="720" width="120" height="60" as="geometry" />
        </mxCell>
        <mxCell id="kXXxRyWmdwGzVnWKBGMw-42" style="edgeStyle=orthogonalEdgeStyle;rounded=0;orthogonalLoop=1;jettySize=auto;html=1;entryX=0.75;entryY=1;entryDx=0;entryDy=0;endArrow=none;endFill=0;" edge="1" parent="WIyWlLk6GJQsqaUBKTNV-1" source="kXXxRyWmdwGzVnWKBGMw-43" target="kXXxRyWmdwGzVnWKBGMw-41">
          <mxGeometry relative="1" as="geometry" />
        </mxCell>
        <mxCell id="kXXxRyWmdwGzVnWKBGMw-43" value="Parking Space ID&lt;div&gt;-------------------------&lt;/div&gt;" style="ellipse;whiteSpace=wrap;html=1;fillColor=#a0522d;fontColor=#ffffff;strokeColor=#6D1F00;" vertex="1" parent="WIyWlLk6GJQsqaUBKTNV-1">
          <mxGeometry x="240" y="915" width="110" height="60" as="geometry" />
        </mxCell>
        <mxCell id="kXXxRyWmdwGzVnWKBGMw-44" style="edgeStyle=orthogonalEdgeStyle;rounded=0;orthogonalLoop=1;jettySize=auto;html=1;entryX=0.25;entryY=1;entryDx=0;entryDy=0;endArrow=none;endFill=0;" edge="1" parent="WIyWlLk6GJQsqaUBKTNV-1" source="kXXxRyWmdwGzVnWKBGMw-45" target="kXXxRyWmdwGzVnWKBGMw-41">
          <mxGeometry relative="1" as="geometry" />
        </mxCell>
        <mxCell id="kXXxRyWmdwGzVnWKBGMw-45" value="License Plate Number" style="ellipse;whiteSpace=wrap;html=1;fillColor=#a0522d;fontColor=#ffffff;strokeColor=#6D1F00;" vertex="1" parent="WIyWlLk6GJQsqaUBKTNV-1">
          <mxGeometry x="110" y="820" width="100" height="50" as="geometry" />
        </mxCell>
        <mxCell id="kXXxRyWmdwGzVnWKBGMw-46" style="edgeStyle=orthogonalEdgeStyle;rounded=0;orthogonalLoop=1;jettySize=auto;html=1;entryX=1;entryY=0.5;entryDx=0;entryDy=0;endArrow=none;endFill=0;" edge="1" parent="WIyWlLk6GJQsqaUBKTNV-1" source="kXXxRyWmdwGzVnWKBGMw-47" target="kXXxRyWmdwGzVnWKBGMw-34">
          <mxGeometry relative="1" as="geometry" />
        </mxCell>
        <mxCell id="kXXxRyWmdwGzVnWKBGMw-47" value="Timeslot" style="ellipse;whiteSpace=wrap;html=1;fillColor=#a0522d;fontColor=#ffffff;strokeColor=#6D1F00;" vertex="1" parent="WIyWlLk6GJQsqaUBKTNV-1">
          <mxGeometry x="1230" y="340" width="110" height="60" as="geometry" />
        </mxCell>
        <mxCell id="kXXxRyWmdwGzVnWKBGMw-48" style="edgeStyle=orthogonalEdgeStyle;rounded=0;orthogonalLoop=1;jettySize=auto;html=1;entryX=0.5;entryY=0;entryDx=0;entryDy=0;endArrow=none;endFill=0;" edge="1" parent="WIyWlLk6GJQsqaUBKTNV-1" source="kXXxRyWmdwGzVnWKBGMw-49" target="kXXxRyWmdwGzVnWKBGMw-41">
          <mxGeometry relative="1" as="geometry" />
        </mxCell>
        <mxCell id="kXXxRyWmdwGzVnWKBGMw-49" value="Assigned" style="rhombus;whiteSpace=wrap;html=1;fillColor=#d5e8d4;strokeColor=#82b366;" vertex="1" parent="WIyWlLk6GJQsqaUBKTNV-1">
          <mxGeometry x="270" y="560" width="130" height="80" as="geometry" />
        </mxCell>
        <mxCell id="kXXxRyWmdwGzVnWKBGMw-50" value="&lt;b style=&quot;font-size: 25px;&quot;&gt;&lt;font color=&quot;#ff0000&quot; style=&quot;font-size: 25px;&quot;&gt;1&lt;/font&gt;&lt;/b&gt;" style="text;html=1;align=center;verticalAlign=middle;resizable=0;points=[];autosize=1;strokeColor=none;fillColor=none;fontSize=25;" vertex="1" parent="WIyWlLk6GJQsqaUBKTNV-1">
          <mxGeometry x="190" y="220" width="40" height="40" as="geometry" />
        </mxCell>
        <mxCell id="kXXxRyWmdwGzVnWKBGMw-51" value="&lt;font color=&quot;#ff0008&quot; style=&quot;font-size: 25px;&quot;&gt;N&lt;/font&gt;" style="text;html=1;align=center;verticalAlign=middle;whiteSpace=wrap;rounded=0;" vertex="1" parent="WIyWlLk6GJQsqaUBKTNV-1">
          <mxGeometry x="180" y="350" width="60" height="30" as="geometry" />
        </mxCell>
        <mxCell id="kXXxRyWmdwGzVnWKBGMw-52" value="&lt;font color=&quot;#ff0000&quot; style=&quot;font-size: 25px;&quot;&gt;1&lt;/font&gt;" style="text;html=1;align=center;verticalAlign=middle;resizable=0;points=[];autosize=1;strokeColor=none;fillColor=none;" vertex="1" parent="WIyWlLk6GJQsqaUBKTNV-1">
          <mxGeometry x="300" y="514" width="40" height="40" as="geometry" />
        </mxCell>
        <mxCell id="kXXxRyWmdwGzVnWKBGMw-53" value="&lt;font color=&quot;#ff0000&quot; style=&quot;font-size: 25px;&quot;&gt;N&lt;/font&gt;" style="text;html=1;align=center;verticalAlign=middle;resizable=0;points=[];autosize=1;strokeColor=none;fillColor=none;" vertex="1" parent="WIyWlLk6GJQsqaUBKTNV-1">
          <mxGeometry x="1166" y="760" width="40" height="40" as="geometry" />
        </mxCell>
        <mxCell id="kXXxRyWmdwGzVnWKBGMw-54" value="&lt;font color=&quot;#ff0000&quot; style=&quot;font-size: 25px;&quot;&gt;1&lt;/font&gt;" style="text;html=1;align=center;verticalAlign=middle;resizable=0;points=[];autosize=1;strokeColor=none;fillColor=none;" vertex="1" parent="WIyWlLk6GJQsqaUBKTNV-1">
          <mxGeometry x="1020" y="760" width="40" height="40" as="geometry" />
        </mxCell>
        <mxCell id="kXXxRyWmdwGzVnWKBGMw-55" value="&lt;font color=&quot;#ff0000&quot; style=&quot;font-size: 25px;&quot;&gt;1&lt;/font&gt;" style="text;html=1;align=center;verticalAlign=middle;resizable=0;points=[];autosize=1;strokeColor=none;fillColor=none;" vertex="1" parent="WIyWlLk6GJQsqaUBKTNV-1">
          <mxGeometry x="300" y="634" width="40" height="40" as="geometry" />
        </mxCell>
        <mxCell id="kXXxRyWmdwGzVnWKBGMw-56" value="&lt;font color=&quot;#ff0000&quot; style=&quot;font-size: 25px;&quot;&gt;1&lt;/font&gt;" style="text;html=1;align=center;verticalAlign=middle;resizable=0;points=[];autosize=1;strokeColor=none;fillColor=none;" vertex="1" parent="WIyWlLk6GJQsqaUBKTNV-1">
          <mxGeometry x="975" y="443" width="40" height="40" as="geometry" />
        </mxCell>
        <mxCell id="kXXxRyWmdwGzVnWKBGMw-57" value="&lt;font color=&quot;#ff0000&quot; style=&quot;font-size: 25px;&quot;&gt;N&lt;/font&gt;" style="text;html=1;align=center;verticalAlign=middle;resizable=0;points=[];autosize=1;strokeColor=none;fillColor=none;" vertex="1" parent="WIyWlLk6GJQsqaUBKTNV-1">
          <mxGeometry x="905" y="370" width="40" height="40" as="geometry" />
        </mxCell>
        <mxCell id="kXXxRyWmdwGzVnWKBGMw-58" value="&lt;font color=&quot;#ff0000&quot; style=&quot;font-size: 25px;&quot;&gt;1&lt;/font&gt;" style="text;html=1;align=center;verticalAlign=middle;resizable=0;points=[];autosize=1;strokeColor=none;fillColor=none;" vertex="1" parent="WIyWlLk6GJQsqaUBKTNV-1">
          <mxGeometry x="675" y="554" width="40" height="40" as="geometry" />
        </mxCell>
        <mxCell id="kXXxRyWmdwGzVnWKBGMw-59" value="&lt;font color=&quot;#ff0000&quot; style=&quot;font-size: 25px;&quot;&gt;1&lt;/font&gt;" style="text;html=1;align=center;verticalAlign=middle;resizable=0;points=[];autosize=1;strokeColor=none;fillColor=none;" vertex="1" parent="WIyWlLk6GJQsqaUBKTNV-1">
          <mxGeometry x="775" y="630" width="40" height="40" as="geometry" />
        </mxCell>
        <mxCell id="kXXxRyWmdwGzVnWKBGMw-60" value="&lt;font color=&quot;#ff0000&quot; style=&quot;font-size: 25px;&quot;&gt;1&lt;/font&gt;" style="text;html=1;align=center;verticalAlign=middle;resizable=0;points=[];autosize=1;strokeColor=none;fillColor=none;" vertex="1" parent="WIyWlLk6GJQsqaUBKTNV-1">
          <mxGeometry x="450" y="460" width="40" height="40" as="geometry" />
        </mxCell>
        <mxCell id="kXXxRyWmdwGzVnWKBGMw-61" value="&lt;font color=&quot;#ff0000&quot; style=&quot;font-size: 25px;&quot;&gt;1&lt;/font&gt;" style="text;html=1;align=center;verticalAlign=middle;resizable=0;points=[];autosize=1;strokeColor=none;fillColor=none;" vertex="1" parent="WIyWlLk6GJQsqaUBKTNV-1">
          <mxGeometry x="390" y="370" width="40" height="40" as="geometry" />
        </mxCell>
      </root>
    </mxGraphModel>
  </diagram>
</mxfile>
